<?xml version="1.0" encoding="UTF-8"?>
<svg id="_图层_1" data-name="图层 1" xmlns="http://www.w3.org/2000/svg" viewBox="0 0 4597.11 1920">
  <defs>
    <style>
      .cls-1 {
        fill: #040000;
      }
    </style>
  </defs>
  <path class="cls-1" d="M1495.52,1008.25h-253.91v73.5h-253.46c-10.89,0-19.71,8.82-19.71,19.71v244.46c0,10.89,8.82,19.71,19.71,19.71h383.3c79.4,0,143.76-64.36,143.76-143.76v-95.78c0-.21.02-.41.02-.62v-97.51c0-10.89-8.82-19.71-19.71-19.71ZM1382.18,1327.96c0,3.23-2.62,5.84-5.84,5.84h-8.7c-3.23,0-5.84-2.62-5.84-5.84v-49.48c0-3.23,2.62-5.84,5.84-5.84h8.7c3.23,0,5.84,2.62,5.84,5.84v49.48ZM1431.86,1316.39l-7.53,4.35c-2.8,1.61-6.37.66-7.98-2.14l-24.74-42.85c-1.61-2.8-.66-6.37,2.14-7.98l7.53-4.35c2.8-1.61,6.37-.66,7.98,2.14l24.74,42.85c1.61,2.8.66,6.37-2.14,7.98ZM1470.39,1274.25l-4.35,7.53c-1.61,2.8-5.19,3.75-7.98,2.14l-42.85-24.74c-2.8-1.61-3.75-5.19-2.14-7.98l4.35-7.53c1.61-2.8,5.19-3.75,7.98-2.14l42.85,24.74c2.8,1.61,3.75,5.19,2.14,7.98ZM1482.86,1226.83c0,3.23-2.62,5.84-5.84,5.84h-49.47c-3.23,0-5.84-2.62-5.84-5.84v-8.7c0-3.23,2.62-5.84,5.84-5.84h49.47c3.23,0,5.84,2.62,5.84,5.84v8.7Z"/>
  <path class="cls-1" d="M1492.29,652.66h-505.47c-10.51,0-19.11,9.04-19.11,20.08v132.93c0,110.44,86.01,200.79,191.14,200.79h82.76v-70.23s250.68,0,250.68,0c12.62,0,22.94-10.84,22.94-24.09v-235.39c0-13.25-10.32-24.09-22.94-24.09Z"/>
  <path class="cls-1" d="M930.21,671.54c-.44-10.55-9.13-18.88-19.69-18.88h-180.38c-11.65,0-20.75,10.04-19.62,21.63l44.02,299.3c1.65,10.44,9.48,17.79,19.62,17.79h137.14c0,16.93-8.02,32.08-26.74,32.08h-111.22c-9.82,0-18.14,7.22-19.52,16.94l-42.66,300.96c-1.68,11.87,7.53,22.48,19.52,22.48h178.68c10.18,0,18.69-7.76,19.63-17.9l30.43-318.03h.44v-46.34h-.44l-29.21-310.03Z"/>
  <path class="cls-1" d="M1890.3,1013.51l-94.95,112-94.95-112h-86.43l129.65,173.47-129.65,179.56h86.43l94.95-116.87,95.56,116.87h85.82l-129.65-179.56,129.65-173.47h-86.43Z"/>
  <rect class="cls-1" x="3158.75" y="1013.51" width="79.73" height="353.03"/>
  <rect class="cls-1" x="3158.75" y="897.87" width="79.73" height="80.35"/>
  <rect class="cls-1" x="2982.39" y="897.26" width="80.34" height="469.83"/>
  <path class="cls-1" d="M2081.72,939.86c-12.78,7.71-23.03,17.96-30.74,30.74-7.71,12.78-11.57,26.89-11.57,42.3v90.09c0,15.82,3.85,30.13,11.57,42.91,7.7,12.78,17.95,23.03,30.74,30.74,11.27,6.8,23.56,10.59,36.88,11.4h278.75v98.95h-356.07c-.47,17.72-.23,71.86.18,80.1l351.61-.54c15.42,0,29.52-3.85,42.3-11.56,12.78-7.7,23.02-17.96,30.74-30.74,7.7-12.78,11.57-26.88,11.57-42.3v-90.09c0-15.82-3.86-30.13-11.57-42.91-7.71-12.78-17.95-23.02-30.74-30.74-12.78-7.7-26.89-11.57-42.3-11.57h-273.29v-98.95h358.15v-79.39h-353.89c-15.43,0-29.52,3.86-42.3,11.56Z"/>
  <path class="cls-1" d="M2857.77,1024.77c-12.78-7.5-26.88-11.26-42.3-11.26h-190.52c-15.02,0-28.91,3.86-41.7,11.56-12.78,7.71-23.03,17.86-30.74,30.43-7.71,12.58-11.56,26.58-11.56,42v185.04c0,15.01,3.85,28.91,11.56,41.69,7.7,12.78,17.96,23.04,30.74,30.74,12.78,7.71,26.68,11.56,41.7,11.56h190.52c15.82,0,30.02-3.85,42.61-11.56,12.57-7.7,22.61-17.96,30.13-30.74,7.5-12.78,11.26-26.68,11.26-41.69v-185.04c0-15.42-3.76-29.52-11.26-42.3-7.51-12.78-17.65-22.92-30.43-30.43ZM2819.73,1100.55v186.26h-199.03v-193.56h199.03v7.3Z"/>
  <path class="cls-1" d="M3635.03,1055.21c-7.51-12.78-17.65-22.92-30.43-30.43-12.78-7.5-26.89-11.26-42.3-11.26h-270.73c-.6,0-1.1.49-1.1,1.1v77.54c0,.22.08.42.2.59h276.2v57.45h-211.65c-11.17.72-22.13,2.34-28.42,5.71-13.16,7.03-20.25,12.6-27.75,25.38-7.51,12.78-11.26,26.68-11.26,41.69v59.58c0,15.01,3.74,28.91,11.26,41.69,7.5,12.78,17.65,23.04,30.43,30.74,12.78,7.71,26.88,11.56,42.3,11.56h194.78s.1-.09.16-.14c13.71-.67,26.34-4.46,37.89-11.43,12.78-7.7,22.93-17.96,30.43-30.74,7.51-12.78,11.26-26.68,11.26-41.69v-185.04c0-15.42-3.76-29.52-11.26-42.3ZM3566.86,1286.81h-199.35v-66.98h199.35v66.98Z"/>
</svg>