<?xml version="1.0" encoding="UTF-8"?>
<svg id="_图层_1" data-name="图层 1" xmlns="http://www.w3.org/2000/svg" viewBox="0 0 1920 1920">
  <defs>
    <style>
      .cls-1 {
        fill: #040000;
      }
    </style>
  </defs>
  <path class="cls-1" d="M1423.5,844.46v-282.98c0-15.93-12.41-28.97-27.57-28.97h-607.67c-12.64,0-22.98,10.86-22.98,24.14v159.81c0,132.77,103.4,241.39,229.79,241.39h99.5v-84.43s301.37,0,301.37,0c15.17,0,27.57-13.04,27.57-28.97Z"/>
  <path class="cls-1" d="M720.19,555.21c-.53-12.69-10.98-22.7-23.68-22.7h-216.86c-14,0-24.95,12.07-23.58,26.01l52.92,359.81c1.98,12.55,11.39,21.38,23.58,21.38h164.87c0,20.36-9.64,38.57-32.14,38.57h-133.71c-11.8,0-21.8,8.68-23.46,20.37l-51.28,361.81c-2.02,14.27,9.05,27.02,23.46,27.02h214.81c12.24,0,22.47-9.33,23.6-21.52l36.58-382.33h.53v-55.71h-.53l-35.11-372.72Z"/>
  <path class="cls-1" d="M938.48,1310.75c-2.96,0-5.42,1.05-7.38,3.16-1.96,2.1-2.93,5.17-2.93,9.2s.96,7.02,2.89,9.15c1.93,2.13,4.34,3.2,7.24,3.2s5.38-1.07,7.42-3.2c2.05-2.13,3.07-5.18,3.07-9.15s-.99-7.02-2.98-9.16-4.43-3.2-7.33-3.2Z"/>
  <path class="cls-1" d="M1048.07,1310.84c-3.02,0-5.59,1.08-7.69,3.24-2.1,2.16-3.16,5.14-3.16,8.93s1.05,6.8,3.16,9.02c2.1,2.22,4.67,3.33,7.69,3.33s5.58-1.1,7.69-3.29c2.1-2.19,3.16-5.18,3.16-8.98s-1.05-6.78-3.16-8.98c-2.1-2.19-4.67-3.29-7.69-3.29Z"/>
  <path class="cls-1" d="M789.85,1046.21c-13.09,0-23.7,10.61-23.7,23.7v293.89c0,13.09,10.61,23.7,23.7,23.7h460.8c95.45,0,172.83-77.38,172.83-172.83v-115.15c0-.25.02-.49.02-.74v-117.23c0-13.09-10.61-23.7-23.7-23.7h-305.25v88.36h-304.71ZM838.13,1347.9l-9.51-13.78-8,13.78h-16.44l16.35-25.33-16.8-24.27h17.06l9.51,13.69,8-13.69h16.44l-16.62,24.98,17.07,24.62h-17.07ZM903.68,1339.01c-1.81,2.9-4.43,5.22-7.87,6.93-3.44,1.72-7.5,2.58-12.18,2.58s-8.65-.74-12.27-2.22c-3.61-1.48-6.5-3.67-8.67-6.58-2.16-2.9-3.3-6.4-3.42-10.49h16.18c.24,2.31,1.04,4.07,2.4,5.29,1.36,1.22,3.14,1.82,5.33,1.82s4.03-.52,5.33-1.55c1.3-1.04,1.96-2.47,1.96-4.31,0-1.54-.52-2.81-1.56-3.82-1.04-1.01-2.31-1.84-3.82-2.49-1.51-.65-3.66-1.39-6.44-2.22-4.03-1.25-7.32-2.49-9.87-3.73-2.55-1.24-4.74-3.08-6.58-5.51-1.84-2.43-2.75-5.6-2.75-9.51,0-5.81,2.1-10.36,6.31-13.64,4.21-3.29,9.69-4.93,16.44-4.93s12.41,1.64,16.62,4.93c4.21,3.29,6.46,7.87,6.76,13.73h-16.44c-.12-2.01-.86-3.6-2.22-4.76-1.37-1.16-3.11-1.73-5.24-1.73-1.84,0-3.32.49-4.44,1.47-1.13.98-1.69,2.39-1.69,4.22,0,2.02.95,3.59,2.84,4.71,1.9,1.13,4.86,2.34,8.89,3.65,4.03,1.36,7.3,2.67,9.82,3.91,2.52,1.24,4.69,3.05,6.53,5.42,1.84,2.37,2.76,5.42,2.76,9.15s-.9,6.79-2.71,9.69ZM960.83,1336.57c-2.28,3.88-5.39,6.86-9.33,8.93-3.94,2.07-8.34,3.11-13.2,3.11s-9.23-1.04-13.11-3.11c-3.88-2.07-6.93-5.04-9.16-8.89-2.22-3.85-3.33-8.36-3.33-13.51s1.12-9.58,3.38-13.47c2.25-3.88,5.33-6.86,9.24-8.93,3.91-2.07,8.29-3.11,13.15-3.11s9.24,1.04,13.16,3.11c3.91,2.08,6.99,5.05,9.24,8.93,2.25,3.88,3.38,8.37,3.38,13.47s-1.14,9.58-3.42,13.46ZM987.54,1347.9h-15.2v-65.77h15.2v65.77ZM1013.76,1347.9h-15.2v-49.6h15.2v49.6ZM1012.65,1290.79c-1.69,1.57-3.84,2.35-6.44,2.35s-4.84-.78-6.53-2.35c-1.69-1.57-2.53-3.51-2.53-5.82s.84-4.34,2.53-5.91,3.87-2.36,6.53-2.36,4.76.79,6.44,2.36,2.53,3.54,2.53,5.91-.84,4.25-2.53,5.82ZM1074.11,1347.9h-15.2v-7.02c-1.48,2.31-3.54,4.18-6.18,5.6-2.64,1.42-5.7,2.13-9.2,2.13-4.03,0-7.7-1.05-11.02-3.16-3.32-2.1-5.94-5.09-7.87-8.98-1.93-3.88-2.89-8.37-2.89-13.47s.96-9.57,2.89-13.42c1.92-3.85,4.55-6.81,7.87-8.89,3.32-2.07,7.02-3.11,11.11-3.11,3.5,0,6.56.71,9.2,2.13,2.64,1.42,4.67,3.29,6.09,5.6v-7.02h15.2v49.6ZM1263.56,1336.98c0,6.77-5.49,12.26-12.26,12.26s-12.26-5.49-12.26-12.26v-49.02c0-6.77,5.49-12.26,12.26-12.26s12.26,5.49,12.26,12.26v49.02ZM1318.75,1330.91c-5.86,3.38-13.36,1.38-16.74-4.49l-24.51-42.45c-3.38-5.86-1.38-13.36,4.49-16.74,5.86-3.38,13.36-1.38,16.74,4.49l24.51,42.45c3.38,5.86,1.38,13.36-4.49,16.74ZM1366.98,1282.16c-3.38,5.86-10.88,7.87-16.74,4.49l-42.45-24.51c-5.86-3.38-7.87-10.88-4.49-16.74,3.38-5.86,10.88-7.87,16.74-4.49l42.45,24.51c5.86,3.38,7.87,10.88,4.49,16.74ZM1384.59,1215.4c0,6.77-5.49,12.26-12.26,12.26h-49.02c-6.77,0-12.26-5.49-12.26-12.26s5.49-12.26,12.26-12.26h49.02c6.77,0,12.26,5.49,12.26,12.26h0Z"/>
</svg>